HIERARCHY
ROOT Hips
{
	OFFSET -3.958830 18.904000 13.208200
	CHANNELS 6 Xposition Yposition Zposition Zrotation Yrotation Xrotation 
	JOINT LHipJoint
	{
		OFFSET 0.000000 0.000000 0.000000
		CHANNELS 3 Zrotation Yrotation Xrotation
		JOINT LeftUpLeg
		{
			OFFSET 1.800000 -1.400000 0.085000
			CHANNELS 3 Zrotation Yrotation Xrotation
			JOINT LeftLeg
			{
				OFFSET 2.215000 -6.000000 0.000000
				CHANNELS 3 Zrotation Yrotation Xrotation
				JOINT LeftFoot
				{
					OFFSET 2.500000 -6.900000 0.000000
					CHANNELS 3 Zrotation Yrotation Xrotation
					JOINT LeftToeBase
					{
						OFFSET 0.200000 -0.500000 1.950000
						CHANNELS 3 Zrotation Yrotation Xrotation
						End Site
						{
							OFFSET 0.000000 0.000000 0.000000
						}
					}
				}
			}
		}
	}
	JOINT RHipJoint
	{
		OFFSET 0.000000 0.000000 0.000000
		CHANNELS 3 Zrotation Yrotation Xrotation
		JOINT RightUpLeg
		{
			OFFSET -1.800000 -1.400000 0.085000
			CHANNELS 3 Zrotation Yrotation Xrotation
			JOINT RightLeg
			{
				OFFSET -2.215000 -6.000000 0.000000
				CHANNELS 3 Zrotation Yrotation Xrotation
				JOINT RightFoot
				{
					OFFSET -2.500000 -6.900000 0.000000
					CHANNELS 3 Zrotation Yrotation Xrotation
					JOINT RightToeBase
					{
						OFFSET -0.200000 -0.500000 1.950000
						CHANNELS 3 Zrotation Yrotation Xrotation
						End Site
						{
							OFFSET 0.000000 0.000000 0.000000
						}
					}
				}
			}
		}
	}
	JOINT LowerBack
	{
		OFFSET 0.000000 0.000000 0.000000
		CHANNELS 3 Zrotation Yrotation Xrotation
		JOINT Spine
		{
			OFFSET -0.087000 1.940000 -0.288900
			CHANNELS 3 Zrotation Yrotation Xrotation
			JOINT Spine1
			{
				OFFSET 0.000000 1.950000 0.060000
				CHANNELS 3 Zrotation Yrotation Xrotation
				JOINT Neck
				{
					OFFSET 0.000000 0.000000 0.000000
					CHANNELS 3 Zrotation Yrotation Xrotation
					JOINT Neck1
					{
						OFFSET 0.000000 1.600000 0.340000
						CHANNELS 3 Zrotation Yrotation Xrotation
						JOINT Head
						{
							OFFSET 0.000000 1.667000 -0.240000
							CHANNELS 3 Zrotation Yrotation Xrotation
							End Site
							{
								OFFSET 0.000000 0.000000 0.000000
							}
						}
					}
				}
				JOINT LeftShoulder
				{
					OFFSET 0.000000 0.000000 0.000000
					CHANNELS 3 Zrotation Yrotation Xrotation
					JOINT LeftArm
					{
						OFFSET 2.700000 1.550000 -0.730000
						CHANNELS 3 Zrotation Yrotation Xrotation
						JOINT LeftForeArm
						{
							OFFSET 5.450000 0.000000 0.000000
							CHANNELS 3 Zrotation Yrotation Xrotation
							JOINT LeftHand
							{
								OFFSET 3.450000 0.000000 0.000000
								CHANNELS 3 Zrotation Yrotation Xrotation
								JOINT LeftHandIndex1
								{
									OFFSET 0.750000 0.000000 0.000000
									CHANNELS 3 Zrotation Yrotation Xrotation
									End Site
									{
										OFFSET 0.000000 0.000000 0.000000
									}
								}
							}
						}
					}
				}
				JOINT RightShoulder
				{
					OFFSET 0.000000 0.000000 0.000000
					CHANNELS 3 Zrotation Yrotation Xrotation
					JOINT RightArm
					{
						OFFSET -2.700000 1.550000 -0.730000
						CHANNELS 3 Zrotation Yrotation Xrotation
						JOINT RightForeArm
						{
							OFFSET -5.450000 0.000000 0.000000
							CHANNELS 3 Zrotation Yrotation Xrotation
							JOINT RightHand
							{
								OFFSET -3.450000 0.000000 0.000000
								CHANNELS 3 Zrotation Yrotation Xrotation
								JOINT RightHandIndex1
								{
									OFFSET -0.750000 0.000000 0.000000
									CHANNELS 3 Zrotation Yrotation Xrotation
									End Site
									{
										OFFSET 0.000000 0.000000 0.000000
									}
								}
							}
						}
					}
				}
			}
		}
	}
}
MOTION
Frames: 8
Frame Time: 0.016667
-0.074230 16.083630 -8.748900 -8.732921 -32.418067 3.650270 -15.843397 11.656249 4.686190 12.853738 -9.967411 -19.813125 -33.759106 29.140246 49.859608 1.903363 13.461675 0.008186 0.812280 0.477550 0.687590 18.099831 -6.818264 4.884529 19.226013 15.188465 -38.190453 2.206871 -4.440613 36.325965 -0.847858 -3.464980 3.157413 0.059400 -0.421190 0.229800 -2.658223 -4.993895 -9.576218 -5.801774 -4.745424 48.957812 0.751429 -3.922476 -13.341968 2.639548 -7.949292 -8.095723 -32.759548 25.680119 50.824283 -6.459550 11.157250 -29.382150 -30.981998 1.664573 -1.471725 -49.563879 6.373740 -15.478600 -20.489133 -38.577213 2.302390 -2.981188 3.053391 1.052900 -0.471430 0.551300 0.158020 27.630733 1.321879 2.759083 46.941628 -11.283732 -16.512112 30.789853 28.238226 4.088810 2.188319 -1.134936 0.075550 0.132720 -0.227710 -0.326460 
-0.079460 16.004770 -8.705550 -8.862319 -34.032539 3.337832 -15.923279 11.241483 5.022897 15.919276 -10.175881 -22.847557 -37.407508 33.052619 51.676867 2.148463 14.273848 -0.185042 0.812560 0.476560 0.682010 18.088030 -6.531993 4.910545 18.572947 16.309233 -38.834001 3.450124 -5.359316 39.686430 -0.991598 -4.113092 2.944126 0.056540 -0.418150 0.229390 -2.661835 -4.867438 -9.776157 -6.668123 -3.669952 50.356784 1.367516 -2.888486 -14.237657 2.220732 -8.316131 -7.340589 -32.481181 25.149391 49.305605 -6.541020 10.969660 -31.747870 -31.254281 3.392631 -2.089292 -50.187141 7.283366 -16.370718 -20.843876 -42.213746 3.008137 -2.970053 3.064827 1.061430 -0.484690 0.554330 0.169790 28.557053 0.427074 2.207818 46.255414 -11.145093 -16.056623 27.371855 27.102805 3.513247 2.184418 -1.104183 0.071500 0.143330 -0.232790 -0.322110 
-0.084010 15.949540 -8.657550 -9.138835 -36.109966 2.637759 -15.970875 10.945103 5.266533 18.582927 -9.672652 -24.950029 -39.716750 36.133972 52.992224 2.325688 14.751447 -0.293334 0.840670 0.526180 0.672000 18.087595 -6.396655 4.873998 18.287315 16.999326 -37.829661 4.836867 -6.232769 41.725518 -1.124576 -4.607966 2.791328 0.069990 -0.426850 0.234160 -2.710675 -4.646006 -9.888473 -7.241582 -2.602452 51.975749 1.784510 -1.751362 -15.422295 1.687621 -8.598693 -6.525800 -33.022903 25.345963 48.397036 -6.192890 10.583940 -34.006080 -31.916595 5.299579 -2.746526 -49.875911 8.563893 -16.869902 -21.664965 -44.713791 3.821859 -2.937525 3.100422 1.058450 -0.506480 0.574360 0.196420 30.083216 -0.757792 1.510828 44.801962 -11.232024 -15.682577 25.259623 27.242428 3.429472 2.171315 -1.119243 0.096500 0.145980 -0.255510 -0.296690 
-0.082310 15.895400 -8.601460 -10.186841 -38.119747 2.096141 -15.989925 10.698811 5.416427 21.263829 -8.740214 -26.011007 -41.025290 38.257112 53.685301 2.416196 14.981060 -0.347909 0.865150 0.569030 0.661500 18.107577 -6.326438 4.864464 18.464553 17.749010 -36.214908 6.702814 -7.473923 43.829492 -1.278812 -5.211074 2.606743 0.085540 -0.428410 0.239560 -2.837391 -4.336040 -9.974263 -6.569000 -2.269303 53.604703 1.356447 -0.740489 -16.455146 1.279445 -8.962462 -5.667554 -33.599319 25.405932 47.488916 -5.631580 10.032370 -35.406460 -33.193753 6.925019 -3.493616 -48.555344 9.691952 -16.984387 -22.588229 -46.907691 4.727722 -2.909746 3.153101 1.045610 -0.517000 0.582220 0.215640 31.794707 -1.760788 0.990190 42.949299 -11.578436 -15.526587 24.363392 29.049100 3.817326 2.138624 -1.178266 0.119540 0.145640 -0.270390 -0.273440 
-0.109530 15.838000 -8.550220 -10.058247 -38.768828 0.634952 -15.976626 10.603264 5.454663 22.105983 -8.705080 -25.604281 -39.305747 39.883809 57.070772 2.562891 15.427841 -0.439715 0.885500 0.612640 0.651860 18.128937 -6.360849 4.842741 18.627761 17.845981 -35.311814 6.486684 -7.755172 45.378173 -1.371764 -5.536135 2.512380 0.094970 -0.420350 0.262710 -2.910462 -4.083291 -9.998204 -6.760398 -1.912049 54.700473 0.854669 -0.376725 -17.021197 0.939869 -9.036086 -4.737702 -32.587550 24.690351 47.557225 -5.518970 9.900230 -36.500170 -33.459574 8.764547 -4.108310 -46.547298 10.747650 -16.670783 -26.257771 -49.025168 6.858504 -2.899062 3.230509 1.029020 -0.511470 0.602110 0.245910 32.408662 -3.274301 0.217422 42.827078 -11.618557 -15.443783 22.204448 28.910529 3.520368 2.136451 -1.186075 0.147220 0.140770 -0.292380 -0.245680 
-0.146970 15.800370 -8.510310 -9.444124 -38.830471 -0.497036 -15.964271 10.552071 5.449928 22.415436 -8.720927 -25.390066 -37.226752 40.510809 59.699468 2.661377 15.734406 -0.489470 0.881220 0.617560 0.641140 18.146168 -6.389588 4.853797 18.817881 17.932120 -34.966252 5.652191 -7.654699 46.778138 -1.423370 -5.751387 2.463292 0.088860 -0.403490 0.262270 -2.952114 -3.905420 -10.014663 -7.161049 -1.534326 54.773654 0.364741 -0.240314 -17.403909 0.786573 -8.902363 -4.123135 -31.455095 24.086042 48.137293 -5.339790 10.054540 -36.417120 -32.928463 10.553022 -4.462602 -44.977820 11.657093 -16.243202 -29.502963 -51.491723 9.129678 -2.897965 3.279413 1.016020 -0.501770 0.603060 0.267510 32.014458 -5.005554 -0.436756 43.806611 -11.783213 -15.584525 20.745132 29.101141 3.391719 2.150083 -1.169843 0.150210 0.146790 -0.307260 -0.231770 
-0.175850 15.780010 -8.489100 -8.870228 -38.699466 -1.534480 -15.938381 10.550377 5.385347 22.085902 -8.724513 -24.942142 -34.813663 40.466637 62.043892 2.701324 15.982307 -0.542377 0.865920 0.603250 0.626660 18.168488 -6.450113 4.880384 19.293907 17.945837 -34.367351 4.457361 -7.195750 47.579818 -1.433473 -5.817446 2.454261 0.084830 -0.384040 0.252420 -3.007723 -3.732763 -9.997616 -7.419149 -1.186593 55.006778 -0.105866 -0.156412 -17.577054 0.547033 -8.911547 -3.701908 -30.854441 23.675273 48.122440 -4.519150 9.930160 -36.804700 -32.172608 12.029636 -4.637217 -43.880652 12.378957 -15.930421 -32.209950 -54.604731 11.452773 -2.907163 3.308195 1.018980 -0.496500 0.591510 0.267890 31.563546 -6.356808 -0.956115 44.700811 -11.797778 -15.812399 20.334966 30.153759 3.588980 2.147826 -1.151524 0.134450 0.164470 -0.298000 -0.231310 
-0.202330 15.786830 -8.471280 -8.538200 -38.275814 -2.478861 -15.898321 10.623562 5.255798 21.403508 -8.726436 -23.943154 -31.755178 39.730051 64.432358 2.708469 16.164697 -0.591226 0.833420 0.558610 0.614440 18.193585 -6.552147 4.913960 20.277061 17.734230 -33.285206 2.817136 -6.411687 47.631159 -1.413058 -5.711156 2.492945 0.062090 -0.383840 0.235870 -3.065794 -3.589443 -9.957032 -7.274400 -0.931170 55.418114 -0.790679 0.010747 -17.717929 0.771964 -8.652428 -3.869911 -30.273272 23.605936 49.450183 -3.818810 10.076310 -37.258050 -30.960968 13.024526 -4.488592 -43.550311 13.224046 -15.978216 -34.214255 -59.105394 13.978963 -2.898594 3.324255 1.050000 -0.508980 0.587100 0.250430 29.883566 -7.510996 -0.960789 46.611480 -12.469604 -16.606422 20.932902 32.622678 4.239160 2.148177 -1.123585 0.107360 0.174690 -0.277840 -0.247990 
